HIERARCHY
ROOT Hips
{
  OFFSET -95.9607 72.5216 1173.08
  CHANNELS 6 Xposition Yposition Zposition Zrotation Xrotation Yrotation
  JOINT Spine
  {
    OFFSET 0 8 0
    CHANNELS 6 Xposition Yposition Zposition Zrotation Xrotation Yrotation
    JOINT Spine1
    {
      OFFSET 0 8 0
      CHANNELS 6 Xposition Yposition Zposition Zrotation Xrotation Yrotation
      JOINT Spine2
      {
        OFFSET 0 8 0
        CHANNELS 6 Xposition Yposition Zposition Zrotation Xrotation Yrotation
        JOINT Spine3
        {
          OFFSET 0 8 0
          CHANNELS 6 Xposition Yposition Zposition Zrotation Xrotation Yrotation
          JOINT Neck
          {
            OFFSET 0 17 0
            CHANNELS 6 Xposition Yposition Zposition Zrotation Xrotation Yrotation
            JOINT Head
            {
              OFFSET 0 10.8 0
              CHANNELS 6 Xposition Yposition Zposition Zrotation Xrotation Yrotation
              End Site
              {
                OFFSET -6.95002 -11.5608 -8.75082
              }
            }
          }
          JOINT LeftShoulder
          {
            OFFSET 5 17 0
            CHANNELS 6 Xposition Yposition Zposition Zrotation Xrotation Yrotation
            JOINT LeftShoulder2
            {
              OFFSET 6.45 0 0
              CHANNELS 6 Xposition Yposition Zposition Zrotation Xrotation Yrotation
              JOINT LeftArm
              {
                OFFSET 6.45 0 0
                CHANNELS 6 Xposition Yposition Zposition Zrotation Xrotation Yrotation
                JOINT LeftForeArm
                {
                  OFFSET 0 -32.4 -2
                  CHANNELS 6 Xposition Yposition Zposition Zrotation Xrotation Yrotation
                  JOINT LeftHand
                  {
                    OFFSET 0 -25.65 2
                    CHANNELS 6 Xposition Yposition Zposition Zrotation Xrotation Yrotation
                    JOINT LeftHandThumb1
                    {
                      OFFSET -0.5 -1.5 2.65
                      CHANNELS 6 Xposition Yposition Zposition Zrotation Xrotation Yrotation
                      JOINT LeftHandThumb2
                      {
                        OFFSET 0 -3.8 3.7
                        CHANNELS 6 Xposition Yposition Zposition Zrotation Xrotation Yrotation
                        JOINT LeftHandThumb3
                        {
                          OFFSET 0 -3 2.7
                          CHANNELS 6 Xposition Yposition Zposition Zrotation Xrotation Yrotation
                          End Site
                          {
                            OFFSET 0 -2.3 1.8
                          }
                        }
                      }
                    }
                    JOINT LeftHandIndex
                    {
                      OFFSET 0 -1.9 1.6
                      CHANNELS 6 Xposition Yposition Zposition Zrotation Xrotation Yrotation
                      JOINT LeftHandIndex1
                      {
                        OFFSET 0 -8.3 1.9
                        CHANNELS 6 Xposition Yposition Zposition Zrotation Xrotation Yrotation
                        JOINT LeftHandIndex2
                        {
                          OFFSET 0 -4.5 0
                          CHANNELS 6 Xposition Yposition Zposition Zrotation Xrotation Yrotation
                          JOINT LeftHandIndex3
                          {
                            OFFSET 0 -3.4 0
                            CHANNELS 6 Xposition Yposition Zposition Zrotation Xrotation Yrotation
                            End Site
                            {
                              OFFSET 0 -2.6 0
                            }
                          }
                        }
                      }
                    }
                    JOINT LeftHandMiddle
                    {
                      OFFSET -0.25 -2.2 0.4
                      CHANNELS 6 Xposition Yposition Zposition Zrotation Xrotation Yrotation
                      JOINT LeftHandMiddle1
                      {
                        OFFSET 0 -8.3 1
                        CHANNELS 6 Xposition Yposition Zposition Zrotation Xrotation Yrotation
                        JOINT LeftHandMiddle2
                        {
                          OFFSET 0 -4.65 0
                          CHANNELS 6 Xposition Yposition Zposition Zrotation Xrotation Yrotation
                          JOINT LeftHandMiddle3
                          {
                            OFFSET 0 -3.3 0
                            CHANNELS 6 Xposition Yposition Zposition Zrotation Xrotation Yrotation
                            End Site
                            {
                              OFFSET 0 -2.7 0
                            }
                          }
                        }
                      }
                    }
                    JOINT LeftHandRing
                    {
                      OFFSET -0.5 -2.15 -0.8
                      CHANNELS 6 Xposition Yposition Zposition Zrotation Xrotation Yrotation
                      JOINT LeftHandRing1
                      {
                        OFFSET 0 -7.75 -0.2
                        CHANNELS 6 Xposition Yposition Zposition Zrotation Xrotation Yrotation
                        JOINT LeftHandRing2
                        {
                          OFFSET 0 -3.8 0
                          CHANNELS 6 Xposition Yposition Zposition Zrotation Xrotation Yrotation
                          JOINT LeftHandRing3
                          {
                            OFFSET 0 -3.4 0
                            CHANNELS 6 Xposition Yposition Zposition Zrotation Xrotation Yrotation
                            End Site
                            {
                              OFFSET 0 -2.6 0
                            }
                          }
                        }
                      }
                    }
                    JOINT LeftHandPinky
                    {
                      OFFSET -0.75 -1.75 -1.85
                      CHANNELS 6 Xposition Yposition Zposition Zrotation Xrotation Yrotation
                      JOINT LeftHandPinky1
                      {
                        OFFSET 0 -7.15 -1
                        CHANNELS 6 Xposition Yposition Zposition Zrotation Xrotation Yrotation
                        JOINT LeftHandPinky2
                        {
                          OFFSET 0 -3 0
                          CHANNELS 6 Xposition Yposition Zposition Zrotation Xrotation Yrotation
                          JOINT LeftHandPinky3
                          {
                            OFFSET 0 -2.35 0
                            CHANNELS 6 Xposition Yposition Zposition Zrotation Xrotation Yrotation
                            End Site
                            {
                              OFFSET 0 -2.1 0
                            }
                          }
                        }
                      }
                    }
                  }
                }
              }
            }
          }
          JOINT RightShoulder
          {
            OFFSET -5 17 0
            CHANNELS 6 Xposition Yposition Zposition Zrotation Xrotation Yrotation
            JOINT RightShoulder2
            {
              OFFSET -6.45 0 0
              CHANNELS 6 Xposition Yposition Zposition Zrotation Xrotation Yrotation
              JOINT RightArm
              {
                OFFSET -6.45 0 0
                CHANNELS 6 Xposition Yposition Zposition Zrotation Xrotation Yrotation
                JOINT RightForeArm
                {
                  OFFSET 0 -32.4 -2
                  CHANNELS 6 Xposition Yposition Zposition Zrotation Xrotation Yrotation
                  JOINT RightHand
                  {
                    OFFSET 0 -25.65 2
                    CHANNELS 6 Xposition Yposition Zposition Zrotation Xrotation Yrotation
                    JOINT RightHandThumb1
                    {
                      OFFSET 0.5 -1.5 2.65
                      CHANNELS 6 Xposition Yposition Zposition Zrotation Xrotation Yrotation
                      JOINT RightHandThumb2
                      {
                        OFFSET 0 -3.8 3.7
                        CHANNELS 6 Xposition Yposition Zposition Zrotation Xrotation Yrotation
                        JOINT RightHandThumb3
                        {
                          OFFSET 0 -3 2.7
                          CHANNELS 6 Xposition Yposition Zposition Zrotation Xrotation Yrotation
                          End Site
                          {
                            OFFSET 0 -2.3 1.8
                          }
                        }
                      }
                    }
                    JOINT RightHandIndex
                    {
                      OFFSET 0 -1.9 1.6
                      CHANNELS 6 Xposition Yposition Zposition Zrotation Xrotation Yrotation
                      JOINT RightHandIndex1
                      {
                        OFFSET 0 -8.3 1.9
                        CHANNELS 6 Xposition Yposition Zposition Zrotation Xrotation Yrotation
                        JOINT RightHandIndex2
                        {
                          OFFSET 0 -4.5 0
                          CHANNELS 6 Xposition Yposition Zposition Zrotation Xrotation Yrotation
                          JOINT RightHandIndex3
                          {
                            OFFSET 0 -3.4 0
                            CHANNELS 6 Xposition Yposition Zposition Zrotation Xrotation Yrotation
                            End Site
                            {
                              OFFSET 0 -2.6 0
                            }
                          }
                        }
                      }
                    }
                    JOINT RightHandMiddle
                    {
                      OFFSET 0.25 -2.2 0.4
                      CHANNELS 6 Xposition Yposition Zposition Zrotation Xrotation Yrotation
                      JOINT RightHandMiddle1
                      {
                        OFFSET 0 -8.3 1
                        CHANNELS 6 Xposition Yposition Zposition Zrotation Xrotation Yrotation
                        JOINT RightHandMiddle2
                        {
                          OFFSET 0 -4.65 0
                          CHANNELS 6 Xposition Yposition Zposition Zrotation Xrotation Yrotation
                          JOINT RightHandMiddle3
                          {
                            OFFSET 0 -3.3 0
                            CHANNELS 6 Xposition Yposition Zposition Zrotation Xrotation Yrotation
                            End Site
                            {
                              OFFSET 0 -2.7 0
                            }
                          }
                        }
                      }
                    }
                    JOINT RightHandRing
                    {
                      OFFSET 0.5 -2.15 -0.8
                      CHANNELS 6 Xposition Yposition Zposition Zrotation Xrotation Yrotation
                      JOINT RightHandRing1
                      {
                        OFFSET 0 -7.75 -0.2
                        CHANNELS 6 Xposition Yposition Zposition Zrotation Xrotation Yrotation
                        JOINT RightHandRing2
                        {
                          OFFSET 0 -3.8 0
                          CHANNELS 6 Xposition Yposition Zposition Zrotation Xrotation Yrotation
                          JOINT RightHandRing3
                          {
                            OFFSET 0 -3.4 0
                            CHANNELS 6 Xposition Yposition Zposition Zrotation Xrotation Yrotation
                            End Site
                            {
                              OFFSET 0 -2.6 0
                            }
                          }
                        }
                      }
                    }
                    JOINT RightHandPinky
                    {
                      OFFSET 0.75 -1.75 -1.85
                      CHANNELS 6 Xposition Yposition Zposition Zrotation Xrotation Yrotation
                      JOINT RightHandPinky1
                      {
                        OFFSET 0 -7.15 -1
                        CHANNELS 6 Xposition Yposition Zposition Zrotation Xrotation Yrotation
                        JOINT RightHandPinky2
                        {
                          OFFSET 0 -3 0
                          CHANNELS 6 Xposition Yposition Zposition Zrotation Xrotation Yrotation
                          JOINT RightHandPinky3
                          {
                            OFFSET 0 -2.35 0
                            CHANNELS 6 Xposition Yposition Zposition Zrotation Xrotation Yrotation
                            End Site
                            {
                              OFFSET 0 -2.1 0
                            }
                          }
                        }
                      }
                    }
                  }
                }
              }
            }
          }
        }
      }
    }
  }
  JOINT LeftUpLeg
  {
    OFFSET 8 0 0
    CHANNELS 6 Xposition Yposition Zposition Zrotation Xrotation Yrotation
    JOINT LeftLeg
    {
      OFFSET 0 -45 -1
      CHANNELS 6 Xposition Yposition Zposition Zrotation Xrotation Yrotation
      JOINT LeftFoot
      {
        OFFSET 0 -41 -2
        CHANNELS 6 Xposition Yposition Zposition Zrotation Xrotation Yrotation
        JOINT LeftToeBase
        {
          OFFSET 0 -7.5 12.5
          CHANNELS 6 Xposition Yposition Zposition Zrotation Xrotation Yrotation
          JOINT LeftFootToe
          {
            OFFSET 0 0 4
            CHANNELS 6 Xposition Yposition Zposition Zrotation Xrotation Yrotation
            End Site
            {
              OFFSET 0 0 0
            }
          }
        }
      }
    }
  }
  JOINT RightUpLeg
  {
    OFFSET -8 0 0
    CHANNELS 6 Xposition Yposition Zposition Zrotation Xrotation Yrotation
    JOINT RightLeg
    {
      OFFSET 0 -45 -1
      CHANNELS 6 Xposition Yposition Zposition Zrotation Xrotation Yrotation
      JOINT RightFoot
      {
        OFFSET 0 -41 -2
        CHANNELS 6 Xposition Yposition Zposition Zrotation Xrotation Yrotation
        JOINT RightToeBase
        {
          OFFSET 0 -7.5 12.5
          CHANNELS 6 Xposition Yposition Zposition Zrotation Xrotation Yrotation
          JOINT RightFootToe
          {
            OFFSET 0 0 4
            CHANNELS 6 Xposition Yposition Zposition Zrotation Xrotation Yrotation
            End Site
            {
              OFFSET 0 0 0
            }
          }
        }
      }
    }
  }
}
MOTION
Frames:	3
Frame Time:	0.0111111
-100.647 70.636 1172.08 -29.2926 4.16125 -163.525 -1.13687e-13 8 0 8.02886 9.91647 4.2802 0 8 -2.27374e-13 6.13338 8.73801 14.8048 1.13687e-13 8 -1.13687e-13 3.36081 4.20046 7.54772 1.13687e-13 8 1.13687e-13 3.32111 4.14228 7.44962 0 17 1.13687e-13 8.4862 21.6783 -14.0678 0 10.8 0 171.188 33.9412 149.35 5 17 1.13687e-13 -5.30106 7.32192 -51.116 6.45 5.68434e-14 0 -1.2728 0.122391 2.88725 6.45 -5.68434e-14 -2.27374e-13 43.5514 8.28563 10.6299 1.42109e-14 -32.4 -2 -108.543 -75.0725 -123.818 5.68434e-14 -25.65 2 -23.38 -21.0899 -44.9033 -0.5 -1.5 2.65 -7.08144 -15.4986 155.861 1.13687e-13 -3.8 3.7 2.25898 5.52133 1.83201 2.27374e-13 -3 2.7 -0.0534811 29.3127 -0.244732 -2.27374e-13 -1.9 1.6 -0 -3.18055e-15 -0 1.13687e-13 -8.3 1.9 -0.624288 6.34965 0.0510746 -1.13687e-13 -4.5 0 -0.000520496 0.000591276 0.000240844 0 -3.4 0 -1.03392e-06 -2.01619e-05 0.000219153 -0.25 -2.2 0.4 -0 -3.18055e-15 -0 0 -8.3 1 -8.33945 8.18789 1.11064 -1.13687e-13 -4.65 -2.84217e-14 -0.00255889 -0.00121397 -0.000204468 -1.13687e-13 -3.3 -5.68434e-14 1.22262e-06 -0.00403505 -0.000235184 -0.5 -2.15 -0.8 -0 -3.18055e-15 -0 0 -7.75 -0.2 -25.0005 16.936 5.24207 0 -3.8 5.68434e-14 -0.000536661 -0.000162571 0.00355444 0 -3.4 0 6.29691e-07 -0.000392583 0.00322623 -0.75 -1.75 -1.85 -0 -3.18055e-15 -0 0 -7.15 -1 -34.2666 21.7565 8.928 0 -3 -8.52651e-14 3.92724e-07 0.0010748 0.00509768 2.27374e-13 -2.35 2.84217e-14 -2.91327e-06 0.000999877 0.00397941 -5 17 0 -1.85811 -0.485375 -61.0417 -6.45 5.68434e-14 0 -2.87524 1.15109 -2.57752 -6.45 0 -2.27374e-13 -15.0084 -57.9189 38.4558 0 -32.4 -2 -123.185 -69.4477 -87.1686 -1.42109e-14 -25.65 2 -32.2212 -30.0815 -15.1499 0.5 -1.5 2.65 5.74183 -22.4853 0.159541 0 -3.8 3.7 0.795215 35.6142 -0.267772 0 -3 2.7 0.0699588 21.3052 -0.0714003 -8.52651e-14 -1.9 1.6 -7.95139e-16 0 1.59028e-15 -2.84217e-14 -8.3 1.9 34.2818 3.91727 -1.58564 1.42109e-14 -4.5 0 50.5435 0.0024486 0.00706237 5.68434e-14 -3.4 2.27374e-13 34.8725 0.00482803 -0.00644894 0.25 -2.2 0.4 -7.95139e-16 0 1.59028e-15 -2.84217e-14 -8.3 1 43.8956 -0.68341 -1.42546 0 -4.65 0 90.0002 -0.000145865 0.000158265 0 -3.3 2.27374e-13 90.0002 -0.000267163 0.00027951 0.5 -2.15 -0.8 -7.95139e-16 0 1.59028e-15 -2.84217e-14 -7.75 -0.2 72.8646 6.92979 -11.5322 5.68434e-14 -3.8 0 76.6154 0.00767697 -0.00526322 5.68434e-14 -3.4 0 60.4963 0.0297415 -0.00787872 0.75 -1.75 -1.85 -7.95139e-16 0 1.59028e-15 -2.84217e-14 -7.15 -1 84.755 0.525166 -12.0012 -1.7053e-13 -3 0 77.1103 -0.00594158 -0.00276357 0 -2.35 0 61.2379 -0.00126542 0.00199696 8 0 0 -23.1995 -39.3184 172.922 0 -45 -1 23.1241 -64.9272 123.054 0 -41 -2 15.7606 -3.69451 80.5745 0 -7.5 12.5 -1.22389e-11 -0.000218833 -8.55762e-10 0 0 4 11.4014 15.5839 40.5075 -8 0 -2.27374e-13 -32.4966 -47.8436 173.183 -5.68434e-14 -45 -1 100.905 -77.3909 -149.566 0 -41 -2 21.119 14.0221 41.9335 -1.13687e-13 -7.5 12.5 -0.00159858 -20.3497 0.00397475 -5.68434e-14 0 4 -17.7981 7.56777 63.4878 
-100.678 70.6329 1172.05 -29.2981 4.14835 -163.59 5.68434e-14 8 0 8.03261 9.9365 4.26012 0 8 2.27374e-13 6.11749 8.769 14.8144 1.13687e-13 8 0 3.35475 4.21649 7.55257 0 8 0 3.31433 4.158 7.45422 1.13687e-13 17 -1.13687e-13 8.49223 21.6699 -14.096 1.13687e-13 10.8 -5.68434e-14 171.112 33.9604 149.392 5 17 0 -5.3283 7.36034 -51.0933 6.45 1.13687e-13 0 -1.27443 0.122549 2.87361 6.45 0 -2.27374e-13 43.4228 8.27991 10.6765 0 -32.4 -2 -108.304 -75.059 -123.973 -5.68434e-14 -25.65 2 -22.7322 -22.1682 -44.795 -0.5 -1.5 2.65 -9.58105 -17.1329 154.8 0 -3.8 3.7 1.82482 4.09004 1.54938 1.13687e-13 -3 2.7 -0.0587968 25.6412 -0.223344 0 -1.9 1.6 -9.54166e-15 -9.54166e-15 1.59028e-15 1.13687e-13 -8.3 1.9 -0.5989 6.20385 0.0484817 0 -4.5 2.84217e-14 -0.000520496 0.000591276 0.000240844 1.13687e-13 -3.4 0 -1.03392e-06 -2.01619e-05 0.000219153 -0.25 -2.2 0.4 -9.54166e-15 -9.54166e-15 1.59028e-15 1.13687e-13 -8.3 1 -8.54489 8.00111 1.11562 -2.27374e-13 -4.65 2.84217e-14 -0.00255889 -0.00121397 -0.000204468 -1.13687e-13 -3.3 -2.84217e-14 1.22262e-06 -0.00403505 -0.000235184 -0.5 -2.15 -0.8 -9.54166e-15 -9.54166e-15 1.59028e-15 0 -7.75 -0.2 -25.8164 16.543 5.30588 -1.13687e-13 -3.8 5.68434e-14 -0.000536661 -0.000162571 0.00355444 0 -3.4 -2.84217e-14 6.29691e-07 -0.000392583 0.00322623 -0.75 -1.75 -1.85 -9.54166e-15 -9.54166e-15 1.59028e-15 -1.13687e-13 -7.15 -1 -35.2473 21.218 8.99679 0 -3 -8.52651e-14 3.92724e-07 0.0010748 0.00509768 0 -2.35 5.68434e-14 -2.91327e-06 0.000999877 0.00397941 -5 17 0 -1.84507 -0.462665 -60.9991 -6.45 -5.68434e-14 0 -2.87486 1.14735 -2.58059 -6.45 -2.27374e-13 -2.27374e-13 -14.9613 -57.9274 38.5651 1.13687e-13 -32.4 -2 -122.971 -69.3485 -86.9142 -2.84217e-14 -25.65 2 -32.1972 -30.139 -15.1737 0.5 -1.5 2.65 5.65371 -22.5218 0.108685 0 -3.8 3.7 0.785757 35.6821 -0.265476 0 -3 2.7 0.0699524 21.3004 -0.071398 0 -1.9 1.6 -1.59028e-15 -3.18055e-15 -0 -2.84217e-14 -8.3 1.9 34.2288 3.89267 -1.57508 -2.84217e-14 -4.5 0 50.5906 0.0024486 0.00692978 2.84217e-14 -3.4 0 34.905 0.00482803 -0.00644894 0.25 -2.2 0.4 -1.59028e-15 -3.18055e-15 -0 5.68434e-14 -8.3 1 43.8885 -0.702382 -1.41893 7.10543e-15 -4.65 2.27374e-13 90.0002 -0.000145865 0.000158265 2.84217e-14 -3.3 0 90.0002 -0.000267163 0.00027951 0.5 -2.15 -0.8 -1.59028e-15 -3.18055e-15 -0 0 -7.75 -0.2 72.8091 6.93737 -11.5228 -5.68434e-14 -3.8 0 76.6673 0.00767697 -0.00539727 5.68434e-14 -3.4 2.27374e-13 60.5734 0.0307317 -0.00787872 0.75 -1.75 -1.85 -1.59028e-15 -3.18055e-15 -0 5.68434e-14 -7.15 -1 84.7386 0.524499 -11.9904 -1.13687e-13 -3 0 77.0602 -0.00594158 -0.00248998 -5.68434e-14 -2.35 0 61.1626 -0.00126542 0.00199696 8 0 2.27374e-13 -23.2322 -39.3405 172.854 0 -45 -1 23.1804 -64.9508 123.112 1.13687e-13 -41 -2 15.8072 -3.73211 80.5699 -5.68434e-14 -7.5 12.5 -1.22389e-11 -0.000218833 -8.55766e-10 -5.68434e-14 0 4 11.4064 15.6375 40.5389 -8 0 -2.27374e-13 -32.4691 -47.8676 173.229 -5.68434e-14 -45 -1 100.964 -77.3759 -149.499 0 -41 -2 21.1777 13.9894 41.9159 0 -7.5 12.5 -0.00160086 -20.3189 0.00397396 -5.68434e-14 0 4 -17.7962 7.57514 63.4858 
-100.718 70.6267 1172.03 -29.3069 4.14059 -163.661 5.68434e-14 8 -2.27374e-13 8.03652 9.95445 4.23985 -1.13687e-13 8 2.27374e-13 6.10089 8.80405 14.8325 1.13687e-13 8 0 3.34821 4.23451 7.56178 0 8 1.13687e-13 3.30738 4.17563 7.46305 1.13687e-13 17 0 8.49404 21.6657 -14.1142 -1.13687e-13 10.8 0 171.063 33.9678 149.415 5 17 -1.13687e-13 -5.35636 7.40386 -51.0762 6.45 -5.68434e-14 0 -1.27527 0.122678 2.86202 6.45 -5.68434e-14 -1.13687e-13 43.2802 8.20771 10.7649 0 -32.4 -2 -107.838 -75.022 -123.83 0 -25.65 2 -22.0477 -23.2856 -44.7744 -0.5 -1.5 2.65 -12.1315 -18.6119 153.829 5.68434e-14 -3.8 3.7 1.44214 2.83272 1.29101 2.27374e-13 -3 2.7 -0.063827 21.9498 -0.145096 0 -1.9 1.6 -0 -9.54166e-15 -0 -1.13687e-13 -8.3 1.9 -0.564186 6.01586 0.046456 0 -4.5 0 -0.000520496 0.000591276 0.000240844 -1.13687e-13 -3.4 0 -1.03392e-06 -2.01619e-05 0.000219153 -0.25 -2.2 0.4 -0 -9.54166e-15 -0 -1.13687e-13 -8.3 1 -8.82899 7.74232 1.13132 0 -4.65 0 -0.00255889 -0.00121397 -0.000204468 0 -3.3 0 1.22262e-06 -0.00403505 -0.000235184 -0.5 -2.15 -0.8 -0 -9.54166e-15 -0 0 -7.75 -0.2 -26.9004 16.1162 5.42256 -1.13687e-13 -3.8 8.52651e-14 -0.000536661 -0.000162571 0.00355444 0 -3.4 0 6.2969e-07 -0.000392583 0.00322623 -0.75 -1.75 -1.85 -0 -9.54166e-15 -0 -1.13687e-13 -7.15 -1 -36.6024 20.6579 9.16278 2.27374e-13 -3 -1.42109e-13 3.92724e-07 0.0010748 0.00509768 0 -2.35 2.84217e-14 -2.91327e-06 0.000999877 0.00397941 -5 17 -1.13687e-13 -1.84103 -0.424282 -60.9696 -6.45 1.13687e-13 0 -2.87458 1.14408 -2.57633 -6.45 -1.13687e-13 0 -14.8601 -57.9086 38.7468 0 -32.4 -2 -122.755 -69.217 -86.6371 -1.42109e-14 -25.65 2 -32.1347 -30.2195 -15.1617 0.5 -1.5 2.65 5.54913 -22.5701 0.0277835 2.84217e-14 -3.8 3.7 0.775226 35.7769 -0.263899 0 -3 2.7 0.0699584 21.3049 -0.0714001 0 -1.9 1.6 3.97569e-16 0 -0 2.84217e-14 -8.3 1.9 34.2212 3.86894 -1.56733 -2.84217e-14 -4.5 -2.27374e-13 50.6078 0.0024486 0.00673421 2.84217e-14 -3.4 0 34.9169 0.00482803 -0.00644894 0.25 -2.2 0.4 3.97569e-16 0 -0 8.52651e-14 -8.3 1 43.892 -0.714299 -1.41761 0 -4.65 2.27374e-13 90.0002 -0.000145865 0.000158265 -2.84217e-14 -3.3 0 90.0002 -0.000267163 0.00027951 0.5 -2.15 -0.8 3.97569e-16 0 -0 2.84217e-14 -7.75 -0.2 72.7608 6.94862 -11.5182 -5.68434e-14 -3.8 0 76.7112 0.00767697 -0.00552898 0 -3.4 -2.27374e-13 60.6386 0.031743 -0.00787872 0.75 -1.75 -1.85 3.97569e-16 0 -0 2.84217e-14 -7.15 -1 84.733 0.52396 -11.9872 -1.13687e-13 -3 0 77.0007 -0.00594158 -0.00221989 0 -2.35 0 61.0728 -0.00126542 0.00199696 8 1.42109e-14 0 -23.2646 -39.3612 172.782 0 -45 -1 23.2753 -64.9796 123.21 1.13687e-13 -41 -2 15.8643 -3.76795 80.5634 -1.13687e-13 -7.5 12.5 -1.22389e-11 -0.000218833 -8.55758e-10 -5.68434e-14 -1.38778e-17 4 11.4126 15.691 40.5691 -8 0 -4.54747e-13 -32.4314 -47.8955 173.291 0 -45 -1 101.034 -77.3598 -149.419 1.13687e-13 -41 -2 21.2353 13.9575 41.898 0 -7.5 12.5 -0.00160328 -20.2861 0.00397312 5.68434e-14 1.38778e-17 4 -17.7938 7.58196 63.4836 
